<svg width="122" height="29" viewBox="0 0 122 29" fill="none" xmlns="http://www.w3.org/2000/svg">
<path d="M41.2 23H44.56V16.448H45.184C45.4 16.952 45.592 17.312 45.832 17.672L49.408 23H53.368L48.664 16.136C51.208 15.584 52.696 13.952 52.696 11.288C52.696 7.99998 50.392 6.15198 46.624 6.17598L41.2 6.19998V23ZM44.56 13.424V9.22398H46.432C48.256 9.22398 49.288 9.96798 49.288 11.312C49.288 12.68 48.256 13.424 46.432 13.424H44.56Z" fill="#121212"/>
<path d="M54.1788 23H57.4188V16.16C57.4188 14 58.6428 13.064 60.0108 13.064C61.6188 13.064 62.6988 14 62.6988 16.16V23H65.9388V15.368C65.9388 12.224 63.8748 10.232 61.1868 10.232C59.3148 10.232 58.0908 10.904 57.4188 12.248V5.47998H54.1788V23Z" fill="#121212"/>
<path d="M68.4117 28.016C71.3397 28.016 72.8997 26.312 73.9557 23.792L79.4757 10.52H75.6357L73.2117 17.648C72.9957 18.248 72.8037 18.992 72.6837 19.64C72.5637 18.992 72.3717 18.248 72.1557 17.648L69.7317 10.52H65.8197L70.7637 22.424L70.5957 22.952C70.2357 24.056 69.4437 24.848 68.1957 24.848C67.6677 24.848 67.2117 24.8 66.7317 24.68L66.2517 27.776C66.8997 27.968 67.7637 28.016 68.4117 28.016Z" fill="#121212"/>
<path d="M85.1568 23H86.9328V20.12H85.5888C84.9648 20.12 84.5808 19.76 84.5808 18.968V13.28H87.2208V10.52H84.5808V7.66398L81.3408 7.99998V10.52H79.5888V13.28H81.3408V19.136C81.3408 21.848 82.6848 23 85.1568 23Z" fill="#121212"/>
<path d="M88.3038 23H91.5438V16.16C91.5438 14 92.7678 13.064 94.1358 13.064C95.7438 13.064 96.8238 14 96.8238 16.16V23H100.064V15.368C100.064 12.224 97.9998 10.232 95.3118 10.232C93.4398 10.232 92.2158 10.904 91.5438 12.248V5.47998H88.3038V23Z" fill="#121212"/>
<path d="M101.874 23H105.114V16.16C105.114 14 106.338 13.064 107.706 13.064C109.314 13.064 110.394 14 110.394 16.16V23H113.634V16.16C113.634 13.76 114.666 13.064 116.178 13.064C117.642 13.064 118.674 14 118.674 16.16V23H121.914V15.368C121.914 12.224 119.85 10.232 117.162 10.232C114.978 10.232 113.778 11.072 112.938 12.584C112.122 11.072 110.634 10.232 108.882 10.232C106.962 10.232 105.714 10.952 105.066 12.344V10.52H101.874V23Z" fill="#121212"/>
<path fill-rule="evenodd" clip-rule="evenodd" d="M14.1497 14.7262C13.7657 22.0669 7.59189 27.9146 0 28V0C7.59189 0.0854653 13.7657 5.9331 14.1497 13.2738C14.5287 6.02987 20.5459 0.239902 28 0.00640446V27.9937C20.5459 27.7602 14.5287 21.9702 14.1497 14.7262Z" fill="#FF6428"/>
</svg>
